<?xml version="1.0" standalone="no"?><!DOCTYPE svg PUBLIC "-//W3C//DTD SVG 1.1//EN" "http://www.w3.org/Graphics/SVG/1.1/DTD/svg11.dtd"><svg t="1771211831703" class="icon" viewBox="0 0 1024 1024" version="1.1" xmlns="http://www.w3.org/2000/svg" p-id="6543" xmlns:xlink="http://www.w3.org/1999/xlink" width="128" height="128"><path d="M136.6 233.4h425.5c19.3 0 35-15.7 35-35s-15.7-35-35-35H136.6c-19.3 0-35 15.7-35 35s15.7 35 35 35zM136.6 445.5h205.6c19.3 0 35-15.7 35-35s-15.7-35-35-35H136.6c-19.3 0-35 15.7-35 35 0 19.4 15.7 35 35 35zM136.6 673.2h205.6c19.3 0 35-15.7 35-35s-15.7-35-35-35H136.6c-19.3 0-35 15.7-35 35s15.7 35 35 35zM891.9 795.2H136.6c-19.3 0-35 15.7-35 35s15.7 35 35 35h755.3c19.3 0 35-15.7 35-35 0-19.4-15.6-35-35-35zM529.5 631.2c39.4 39.4 91.2 59.1 143 59.1 40.7 0 81.4-12.2 116.1-36.5l62.1 62.1c13.7 13.7 35.8 13.7 49.5 0 13.7-13.7 13.7-35.8 0-49.5L838 604.3c55.3-78.8 47.8-188.7-22.6-259.1-78.8-78.8-207.1-78.8-286 0-78.8 78.8-78.8 207.1 0.1 286zM579 394.7c25.8-25.8 59.6-38.7 93.5-38.7s67.7 12.9 93.5 38.7c51.6 51.6 51.6 135.4 0 187-51.6 51.6-135.4 51.6-187 0-51.6-51.6-51.6-135.5 0-187z" p-id="6544" fill="currentColor"></path></svg>