<?xml version="1.0" standalone="no"?><!DOCTYPE svg PUBLIC "-//W3C//DTD SVG 1.1//EN" "http://www.w3.org/Graphics/SVG/1.1/DTD/svg11.dtd"><svg t="1771205160799" class="icon" viewBox="0 0 1024 1024" version="1.1" xmlns="http://www.w3.org/2000/svg" p-id="2548" xmlns:xlink="http://www.w3.org/1999/xlink" width="128" height="128"><path d="M895.999996 352.000007v599.999994q0 30-20.5 50.999999t-50.499999 21H201.000003q-30 0-51.499999-21T128.000004 952.000001V72.000009q0-30 21.5-50.999999T201.000003 0.00001h345.999997a72.929999 72.929999 0 0 1 28.999999 6 12 12 0 0 1 3 2c0.66 0 2 0.67 4 2a125.189999 125.189999 0 0 1 15 11l277.999997 280.999997q20 20 20 50z m-71.999999 31.999999H584.999999q-30 0-51.499999-21T512 312.000007V72.000009H200.000003v879.999992h623.999994zM520 600.000004a285.549997 285.549997 0 0 1-31 35.5Q472 652.000004 460.500001 679.000003t-6.5 57h87.999999a69.209999 69.209999 0 0 1 5.5-39.5 123.999999 123.999999 0 0 1 21.999999-32.999999q13.5-14.5 27.5-29a141.539999 141.539999 0 0 0 24-34 87.749999 87.749999 0 0 0 10-40.499999q0-55.999999-34.5-84T506 448.000006q-72.999999 0-124.999999 58.999999l55 51q30-29 57.999999-29 18 0 29 10t11 27.999999q0 14-14 33z m-52 264.499998a41.06 41.06 0 0 0 59 0q12-12.5 12-30.5t-12-30.5a39.32 39.32 0 0 0-29.5-12.5q-17.5 0-29.5 12t-11.999999 31q0 18 11.999999 30.5zM583.999999 312.000007h200.999998L583.999999 110.000009z" p-id="2549" fill="currentColor"></path></svg>