<?xml version="1.0" standalone="no"?><!DOCTYPE svg PUBLIC "-//W3C//DTD SVG 1.1//EN" "http://www.w3.org/Graphics/SVG/1.1/DTD/svg11.dtd"><svg t="1776573789307" class="icon" viewBox="0 0 1024 1024" version="1.1" xmlns="http://www.w3.org/2000/svg" p-id="824" width="32" height="32" xmlns:xlink="http://www.w3.org/1999/xlink"><path d="M783.43332307 334.94354392c41.87828413-41.65670592 65.36557577-97.93757452 65.36557576-156.87738182V91.87223337h66.91662332V2.79778777H107.61974319v89.0744456h66.91662331v86.19392873c0 58.93980729 23.48729163 115.22067592 65.36557577 156.87738182l150.67319157 150.00845691c12.6299587 12.6299587 12.6299587 33.23673343 0 45.86669214l-150.67319157 150.23003512c-41.87828413 41.65670592-65.36557577 98.15915275-65.36557577 156.87738184v86.19392872H107.61974319v89.07444561h808.31735719v-89.07444561H848.79889883v-86.19392872c0-58.93980729-23.48729163-115.22067592-65.36557576-156.87738184l-150.67319159-150.23003512c-12.6299587-12.6299587-12.6299587-33.23673343 0-45.86669214l150.67319159-150.00845691z m-206.0677473 251.04812655l79.98973846 79.54658204H366.20152933l79.98973847-79.54658204c43.20775347-43.20775347 43.20775347-113.22647191 0-156.43422538l-150.6731916-150.23003514c-27.25412143-27.25412143-42.32144059-63.14979352-42.32144056-101.70440431V81.01490045h517.3851505v97.05126165c0 38.33303255-15.06731916 74.4502829-42.32144058 101.70440429l-150.67319158 150.23003515c-43.4293317 42.98617525-43.4293317 113.00489368-0.22157821 155.99106893z" fill="#2c9df7" p-id="825"></path></svg>